[Header]
FileType HTR
DataType HTRS
FileVersion 1
NumSegments 22
NumFrames 5
DataFrameRate 24
EulerRotationOrder ZYX
CalibrationUnits mm
RotationUnits Degrees
GlobalAxisofGravity Y
BoneLengthAxis Y
ScaleFactor 1.0
[SegmentNames&Hierarchy]
reference	GLOBAL
Hips	reference
Spine	Hips
Spine1	Spine
Neck	Spine1
Head	Neck
LeftShoulder	Spine1
LeftArm	LeftShoulder
LeftForeArm	LeftArm
LeftHand	LeftForeArm
RightShoulder	Spine1
RightArm	RightShoulder
RightForeArm	RightArm
RightHand	RightForeArm
LeftUpLeg	Hips
LeftLeg	LeftUpLeg
LeftFoot	LeftLeg
LeftToeBase	LeftFoot
RightUpLeg	Hips
RightLeg	RightUpLeg
RightFoot	RightLeg
RightToeBase	RightFoot
[BasePosition]
reference	0	0	0	0	0	0	1
Hips	0	0	0	0	0	0	1
Spine	0	0	0	0	-0	90	1
Spine1	0	0	0	0	0	0	1
Neck	0	0	0	-7.352327771	-7.352327771	90	1
Head	0	0	0	0	-0	90	1
LeftShoulder	0	0	0	0	0	0	1
LeftArm	0	0	0	0	0	0	1
LeftForeArm	0	0	0	0	0	0	1
LeftHand	0	0	0	0	0	0	1
RightShoulder	0	0	0	0	-0	180	1
RightArm	0	0	0	0	-0	180	1
RightForeArm	0	0	0	0	-0	180	1
RightHand	0	0	0	0	-0	180	1
LeftUpLeg	0	0	0	0	-0	-90	1
LeftLeg	0	0	0	0	-0	-90	1
LeftFoot	0	0	0	66.57146043	-66.57146043	-90	1
LeftToeBase	0	0	0	0	-90	0	1
RightUpLeg	0	0	0	0	-0	-90	1
RightLeg	0	0	0	0	-0	-90	1
RightFoot	0	0	0	66.57146043	-66.57146043	-90	1
RightToeBase	0	0	0	0	-90	0	1
[reference]
10	0	0	0	0	-0	0	1.0
11	0	0	0	0	-0	0	1.0
12	0	0	0	0	-0	0	1.0
13	0	0	0	0	-0	0	1.0
14	0	0	0	0	-0	0	1.0
[Hips]
10	6.619028568	8.523360252	0.5284018517	-4.439628601	-111.5902328	6.310562134	1.0
11	6.634022713	8.523360252	0.5076324344	-4.330574036	-111.5129013	6.203613281	1.0
12	6.649316788	8.523360252	0.4881329834	-4.185744286	-111.410675	6.101428986	1.0
13	6.665132046	8.523360252	0.4697945416	-4.177383423	-111.1891479	6.205474854	1.0
14	6.681690216	8.523360252	0.4511223435	-4.693091393	-110.6446381	6.791771889	1.0
[Spine]
10	0	0.7457100153	0	-12.66032982	1.918176174	-88.58361816	1.0
11	0	0.7457100153	0	-12.64130878	1.811564684	-88.77073669	1.0
12	0	0.7457100153	0	-12.5097723	1.847147942	-88.74146271	1.0
13	0	0.7457100153	0	-12.30912018	1.827668548	-88.78369141	1.0
14	0	0.7457100153	0	-11.68732071	1.685008645	-88.52754974	1.0
[Spine1]
10	0	2.140589952	0	13.83607864	0.4347479045	1.33483839	1.0
11	0	2.140589952	0	13.83078766	0.41324085	1.34962523	1.0
12	0	2.140589952	0	13.79430199	0.425778985	1.308358073	1.0
13	0	2.140589952	0	13.72194767	0.3753679395	1.577751398	1.0
14	0	2.140589952	0	13.10112381	0.4019752145	1.117271423	1.0
[Neck]
10	0	2.32246995	0	-13.84092236	9.055958748	-91.18917084	1.0
11	0	2.32246995	0	-14.07070351	9.046216965	-91.58877563	1.0
12	0	2.32246995	0	-14.00547981	9.023398399	-91.48410797	1.0
13	0	2.32246995	0	-14.28169441	9.028526306	-91.56248474	1.0
14	0	2.32246995	0	-14.46147728	9.519342422	-91.63539124	1.0
[Head]
10	0	1.409579992	0.1818799973	-4.787387848	1.969505906	-91.51734924	1.0
11	0	1.409579992	0.1818799973	-4.655003071	1.962824583	-91.2232666	1.0
12	0	1.409579992	0.1818799973	-4.731101036	1.938128829	-91.3086319	1.0
13	0	1.409579992	0.1818799973	-4.568151474	1.953182459	-91.2876358	1.0
14	0	1.409579992	0.1818799973	-5.091314316	2.435014486	-90.96252441	1.0
[LeftShoulder]
10	0.3668199778	1.946700096	-0.02662999928	-15.23302269	-12.17209435	-5.632094383	1.0
11	0.3668199778	1.946700096	-0.02662999928	-15.22103119	-12.16467667	-5.639753342	1.0
12	0.3668199778	1.946700096	-0.02662999928	-15.3427639	-12.20589161	-5.78534174	1.0
13	0.3668199778	1.946700096	-0.02662999928	-15.45783806	-12.20213032	-6.053580284	1.0
14	0.3668199778	1.946700096	-0.02662999928	-15.27130318	-12.45802498	-5.742572308	1.0
[LeftArm]
10	1.140689969	0	0	45.39001465	14.13667107	-75.00461578	1.0
11	1.140689969	0	0	45.36300278	14.02591896	-74.87532806	1.0
12	1.140689969	0	0	45.17366409	14.0473938	-74.55506897	1.0
13	1.140689969	0	0	45.23219299	14.05364037	-74.34724426	1.0
14	1.140689969	0	0	45.23633575	13.96734715	-74.34387207	1.0
[LeftForeArm]
10	2.749800205	0	0	-16.63414955	-12.61979675	1.97721231	1.0
11	2.749800205	0	0	-16.61987495	-12.56210423	1.975016236	1.0
12	2.749800205	0	0	-16.52933502	-12.60109425	1.903075576	1.0
13	2.749800205	0	0	-16.54490471	-12.69162846	2.055859804	1.0
14	2.749800205	0	0	-16.60613823	-12.97755527	2.240632534	1.0
[LeftHand]
10	2.295179844	0	0	-16.44130707	-3.027469397	0.9779373407	1.0
11	2.295179844	0	0	-16.43167305	-3.11648035	1.074418306	1.0
12	2.295179844	0	0	-16.34561539	-3.148392439	0.9621865153	1.0
13	2.295179844	0	0	-16.34780502	-3.225831747	1.121768951	1.0
14	2.295179844	0	0	-16.38277245	-3.329016685	1.085879803	1.0
[RightShoulder]
10	-0.3601199985	1.946700096	-0.02662999928	-4.941988945	4.63828373	178.0310364	1.0
11	-0.3601199985	1.946700096	-0.02662999928	-4.997365952	4.796205521	177.9756775	1.0
12	-0.3601199985	1.946700096	-0.02662999928	-4.861374855	4.836968899	177.9879608	1.0
13	-0.3601199985	1.946700096	-0.02662999928	-4.956441402	4.806473732	177.9845276	1.0
14	-0.3601199985	1.946700096	-0.02662999928	-4.867063522	4.717460155	177.8479004	1.0
[RightArm]
10	-1.140689969	0	0	52.39440918	0.2070932388	-99.2685318	1.0
11	-1.140689969	0	0	52.44512558	0.2623567581	-99.3819809	1.0
12	-1.140689969	0	0	52.55705261	0.3345764875	-99.28457642	1.0
13	-1.140689969	0	0	52.72598648	0.2581941485	-99.29148865	1.0
14	-1.140689969	0	0	52.83071899	0.3525039554	-99.12535858	1.0
[RightForeArm]
10	-2.749800205	0	0	-2.541701794	11.3954401	178.1897278	1.0
11	-2.749800205	0	0	-2.588817358	11.47247505	178.1073608	1.0
12	-2.749800205	0	0	-2.650948524	11.53154182	178.0670471	1.0
13	-2.749800205	0	0	-2.731357336	11.58465672	178.0157928	1.0
14	-2.749800205	0	0	-2.768163204	11.66961288	177.9733582	1.0
[RightHand]
10	-2.295179844	0	0	-2.793478966	7.063352585	173.0023499	1.0
11	-2.295179844	0	0	-2.827988863	7.066730022	173.0569153	1.0
12	-2.295179844	0	0	-2.885660648	7.098826408	173.0787048	1.0
13	-2.295179844	0	0	-2.954716682	7.144371986	173.2068634	1.0
14	-2.295179844	0	0	-2.973783016	7.141831398	173.3947449	1.0
[LeftUpLeg]
10	0.9094099998	0	0	4.455718517	5.122509003	93.97458649	1.0
11	0.9094099998	0	0	3.83366394	4.912102222	94.06636047	1.0
12	0.9094099998	0	0	2.680112362	4.982303143	94.12025452	1.0
13	0.9094099998	0	0	0.434553802	4.750463009	94.22619629	1.0
14	0.9094099998	0	0	-3.422348499	3.659564972	94.38793182	1.0
[LeftLeg]
10	0	-4.498080254	0	2.84494257	-2.447964907	88.28798676	1.0
11	0	-4.498080254	0	4.174945831	-2.403083324	88.24079895	1.0
12	0	-4.498080254	0	6.475110531	-2.511934757	88.20081329	1.0
13	0	-4.498080254	0	10.93663788	-2.87978673	87.93164825	1.0
14	0	-4.498080254	0	18.79452133	-2.596307755	87.84815979	1.0
[LeftFoot]
10	0	-3.729400158	0	-77.72969818	111.0558014	-26.12332535	1.0
11	0	-3.729400158	0	-77.55891418	110.7298889	-25.36327362	1.0
12	0	-3.729400158	0	-77.70707703	110.4552231	-24.68244934	1.0
13	0	-3.729400158	0	-76.39460754	110.0865936	-21.78637695	1.0
14	0	-3.729400158	0	-74.38897705	108.7312775	-18.16346359	1.0
[LeftToeBase]
10	0	-0.5911099911	1.364109993	0	0	0	1.0
11	0	-0.5911099911	1.364109993	0	0	0	1.0
12	0	-0.5911099911	1.364109993	0	0	0	1.0
13	0	-0.5911099911	1.364109993	0	0	0	1.0
14	0	-0.5911099911	1.364109993	0	0	0	1.0
[RightUpLeg]
10	-0.9094099998	0	0	4.193252563	-2.015958071	94.57624817	1.0
11	-0.9094099998	0	0	4.202176094	-2.338710785	94.68333435	1.0
12	-0.9094099998	0	0	4.097836494	-2.57221365	94.77310181	1.0
13	-0.9094099998	0	0	3.877414465	-2.627125263	94.96263885	1.0
14	-0.9094099998	0	0	3.671001911	-2.818802357	95.22369385	1.0
[RightLeg]
10	0	-4.498080254	0	4.354029655	-3.304203033	90.43218994	1.0
11	0	-4.498080254	0	4.345470428	-2.882301331	90.43349457	1.0
12	0	-4.498080254	0	4.392116547	-2.381973028	90.50987244	1.0
13	0	-4.498080254	0	4.532773972	-2.273005962	90.5644989	1.0
14	0	-4.498080254	0	4.608155727	-2.359651566	90.85649872	1.0
[RightFoot]
10	0	-3.729400158	0	42.28910446	65.23612976	86.88282013	1.0
11	0	-3.729400158	0	41.856987	65.30744934	86.45598602	1.0
12	0	-3.729400158	0	41.04057312	65.28157806	85.63735199	1.0
13	0	-3.729400158	0	39.96717834	66.00292206	84.40155792	1.0
14	0	-3.729400158	0	39.02210617	66.16714478	83.63711548	1.0
[RightToeBase]
10	0	-0.5911099911	1.364109993	0	0	0	1.0
11	0	-0.5911099911	1.364109993	0	0	0	1.0
12	0	-0.5911099911	1.364109993	0	0	0	1.0
13	0	-0.5911099911	1.364109993	0	0	0	1.0
14	0	-0.5911099911	1.364109993	0	0	0	1.0
[EndOfFile]
